<svg xmlns="http://www.w3.org/2000/svg" viewBox="0 0 2096.69 400"><defs><style>.cls-1{fill:#fff;}</style></defs><g id="Layer_2" data-name="Layer 2"><g id="Layer_1-2" data-name="Layer 1"><polygon class="cls-1" points="0 54.83 0 392.42 52.51 392.42 52.51 219.4 180.87 400 309.24 219.4 309.24 392.42 361.75 392.42 361.75 54.83 180.87 309.7 0 54.83"/><rect class="cls-1" x="396.76" y="135.16" width="42.79" height="257.26"/><polygon class="cls-1" points="657.37 303.17 474.55 131.46 474.55 392.42 515.39 392.42 515.39 226.14 698.21 397.85 698.21 135.16 657.37 135.16 657.37 303.17"/><path class="cls-1" d="M790.6,135.16h-71V392.42h71q54,0,92.47-38,38.34-37.83,38.33-91.11c0-35.52-12.77-65.48-38.33-90.71S826.58,135.16,790.6,135.16Zm63.25,190.78c-17.53,17.31-38.62,26.16-63.25,26.16H762.39V175.48H790.6c24.63,0,45.72,8.45,63.25,25.75s26.3,38.07,26.3,62.27S871.39,308.63,853.85,325.94Z"/><path class="cls-1" d="M1113.53,227q-17.55-13.65-64.71-24.69-27-6.27-37.08-13.21-16.89-11.25-16.89-34.64a45.16,45.16,0,0,1,14-33.35,46.36,46.36,0,0,1,33.79-13.86,47.24,47.24,0,0,1,25,6.93A46.58,46.58,0,0,1,1085.23,133l47-23.39a101,101,0,0,0-89.5-54.35q-41.69,0-71.08,29t-29.39,70.16q0,50.88,29.61,73.62,17.55,13.65,64.71,24.69,27,6.28,37.08,13.21,16.67,11.27,16.67,34.65,0,17.75-15.14,31.83-16.67,15.15-38.17,15.16-18.65,0-34.66-11.7-14.7-10.81-17.77-25.33L933,321.39q7.25,33.57,38,56.09,29.84,22.08,66,22.09,42.12,0,73.93-29,32.25-29.44,32.25-69.94Q1143.15,249.72,1113.53,227Z"/><path class="cls-1" d="M1324.1,221.9c0-24.1-8.71-44.33-26.13-61.53s-38.16-25.21-62.57-25.21h-80.14V392.42h42.79V309.87h37.35c24.41,0,45.27-8.83,62.57-25.92S1324.1,246,1324.1,221.9Zm-55.18,32.45c-9.28,9.16-20.45,13.28-33.52,13.28h-37.35V175.48h37.35c13.07,0,24.24,4.37,33.52,13.54s13.92,19.85,13.92,32.75S1278.2,245.19,1268.92,254.35Z"/><path class="cls-1" d="M1292.18,392.42h44.69l20.63-48h96.6l20.62,48h44.87L1405.8,128.92ZM1373.83,306l32-74,32,74Z"/><path class="cls-1" d="M1670.9,283.83Q1697,258.21,1697,221.9c0-24.1-8.71-44.33-26.13-61.53s-38.33-25.21-62.74-25.21h-83.37V392.42h40.84V309.87h31.87l54.84,82.55h49.15l-59.3-89.59A88,88,0,0,0,1670.9,283.83Zm-62.74-14.28h-42.53V175.48h42.53c13.06,0,24.24,4.37,33.52,13.54s14.09,20.08,14.09,33a45.15,45.15,0,0,1-14.09,33.36C1632.4,264.64,1621.22,269.55,1608.16,269.55Z"/><polygon class="cls-1" points="1899.38 159.3 1913.65 240.59 2096.69 0 1939.09 162.54 1921.76 80.23 1866.35 135.16 1866.22 135.16 1824.43 175.6 1817.89 181.24 1817.91 181.24 1750.4 248.03 1750.4 135.16 1709.55 135.16 1709.55 392.42 1750.4 392.42 1750.4 305.72 1774.79 281.96 1864.5 392.42 1917.27 392.42 1804.51 252.95 1899.38 159.3"/></g></g></svg>