<svg xmlns="http://www.w3.org/2000/svg" viewBox="0 0 545.26 700"><defs><style>.cls-1{fill:#fff;}</style></defs><g id="Layer_2" data-name="Layer 2"><g id="lastpage"><path class="cls-1" d="M515.4,303.24c-26.47-56.88-37.23-80.75-34.92-132.25,2.43-54.28,30.27-171,30.27-171s-38.51,86.06-57.06,135.73c-18.86,50.47-39.74,143-39.74,143s4.39,11.58,6.76,17.29a324.67,324.67,0,0,0,14.93,31.71c13.61,24.65,46.54,71.51,35.93,135.94-12.75,77.37-86.43,195.36-87.49,197.09,1.61-1.23,125.11-85.79,154.09-181.59C554,426.79,541.89,360.11,515.4,303.24Z"/><path class="cls-1" d="M500.78,0S462,85.26,443.17,135.73s-39.74,143-39.74,143L279.91,459.68,177.74,339.4,0,700,154.82,151,279.91,322.67Z"/></g></g></svg>